<svg xmlns="http://www.w3.org/2000/svg" viewBox="22.969999313354492 9.359999656677246 339.9800109863281 61.12999725341797" fill="#000000" data-color-origin="#000000" data-color-type="fill">
    <path fill="#ffffff" d="M51.12 70.49L51.12 70.49L39.46 70.49Q37.73 70.49 36.94 69.70Q36.14 68.90 36.14 67.18L36.14 67.18L36.14 32.54L26.28 32.54Q24.55 32.54 23.76 31.75Q22.97 30.96 22.97 29.23L22.97 29.23L22.97 20.52Q22.97 19.58 23.22 18.94Q23.47 18.29 23.98 17.86L23.98 17.86L33.26 10.01Q33.62 9.72 34.24 9.54Q34.85 9.36 35.57 9.36L35.57 9.36L73.58 9.36Q75.31 9.36 76.10 10.15Q76.90 10.94 76.90 12.67L76.90 12.67L76.90 21.38Q76.90 22.32 76.64 22.97Q76.39 23.62 75.89 24.05L75.89 24.05L66.53 31.82Q66.24 32.11 65.63 32.33Q65.02 32.54 64.30 32.54L64.30 32.54L63.72 32.54L63.72 59.33Q63.72 60.26 63.47 60.91Q63.22 61.56 62.71 61.99L62.71 61.99L53.35 69.77Q53.06 70.06 52.45 70.27Q51.84 70.49 51.12 70.49ZM48.74 61.92L60.41 61.92Q61.78 61.92 62.39 61.31Q63.00 60.70 63.00 59.33L63.00 59.33L63.00 23.98L73.58 23.98Q74.95 23.98 75.56 23.36Q76.18 22.75 76.18 21.38L76.18 21.38L76.18 12.67Q76.18 11.30 75.56 10.69Q74.95 10.08 73.58 10.08L73.58 10.08L35.57 10.08Q34.20 10.08 33.59 10.69Q32.98 11.30 32.98 12.67L32.98 12.67L32.98 21.38Q32.98 22.75 33.59 23.36Q34.20 23.98 35.57 23.98L35.57 23.98L46.15 23.98L46.15 59.33Q46.15 60.70 46.76 61.31Q47.38 61.92 48.74 61.92L48.74 61.92ZM54.94 55.44L54.22 55.44L54.22 17.28L39.46 17.28L39.46 16.56L69.70 16.56L69.70 17.28L54.94 17.28L54.94 55.44ZM111.74 70.49L93.02 70.49Q91.37 70.49 90.36 69.88Q89.35 69.26 88.70 67.68L88.70 67.68L81.65 50.04Q81.00 48.38 80.53 47.20Q80.06 46.01 79.78 44.89Q79.49 43.78 79.38 42.52Q79.27 41.26 79.27 39.53L79.27 39.53L79.27 20.52Q79.27 19.58 79.52 18.94Q79.78 18.29 80.28 17.86L80.28 17.86L89.57 10.01Q89.93 9.72 90.54 9.54Q91.15 9.36 91.87 9.36L91.87 9.36L103.32 9.36Q105.05 9.36 105.95 10.19Q106.85 11.02 106.85 12.67L106.85 12.67L106.85 32.54Q106.85 33.26 106.99 33.91Q107.14 34.56 107.35 35.28L107.35 35.28L107.57 35.78L107.57 20.52Q107.57 19.58 107.82 18.94Q108.07 18.29 108.58 17.86L108.58 17.86L117.86 10.01Q118.22 9.72 118.84 9.54Q119.45 9.36 120.17 9.36L120.17 9.36L131.47 9.36Q133.27 9.36 134.03 10.15Q134.78 10.94 134.78 12.67L134.78 12.67L134.78 31.68Q134.78 33.41 134.68 34.67Q134.57 35.93 134.28 37.04Q133.99 38.16 133.52 39.35Q133.06 40.54 132.41 42.19L132.41 42.19L125.35 59.83Q125.14 60.48 124.78 60.98Q124.42 61.49 124.06 61.78L124.06 61.78L114.77 69.48Q114.19 69.98 113.44 70.24Q112.68 70.49 111.74 70.49L111.74 70.49ZM102.31 61.92L121.03 61.92Q122.40 61.92 123.30 61.42Q124.20 60.91 124.70 59.54L124.70 59.54L131.76 41.90Q132.41 40.32 132.84 39.13Q133.27 37.94 133.56 36.86Q133.85 35.78 133.96 34.60Q134.06 33.41 134.06 31.68L134.06 31.68L134.06 12.67Q134.06 11.30 133.45 10.69Q132.84 10.08 131.47 10.08L131.47 10.08L120.17 10.08Q118.80 10.08 118.19 10.69Q117.58 11.30 117.58 12.67L117.58 12.67L117.58 32.47Q117.58 33.19 117.43 33.91Q117.29 34.63 117.00 35.42L117.00 35.42L113.62 45.58Q113.40 46.30 113.11 46.55Q112.82 46.80 112.25 46.80L112.25 46.80L111.46 46.80Q110.88 46.80 110.59 46.55Q110.30 46.30 110.09 45.58L110.09 45.58L106.70 35.50Q106.42 34.70 106.27 33.98Q106.13 33.26 106.13 32.54L106.13 32.54L106.13 12.67Q106.13 11.30 105.41 10.69Q104.69 10.08 103.32 10.08L103.32 10.08L91.87 10.08Q90.50 10.08 89.89 10.69Q89.28 11.30 89.28 12.67L89.28 12.67L89.28 31.68Q89.28 33.41 89.39 34.60Q89.50 35.78 89.78 36.86Q90.07 37.94 90.50 39.13Q90.94 40.32 91.58 41.90L91.58 41.90L98.64 59.54Q99.14 60.91 100.04 61.42Q100.94 61.92 102.31 61.92L102.31 61.92ZM97.42 32.11L97.42 16.56L98.14 16.56L98.14 32.11Q98.14 33.98 98.42 35.68Q98.71 37.37 99.29 38.81L99.29 38.81L104.04 50.33Q104.76 52.20 105.66 53.46Q106.56 54.72 108.58 54.72L108.58 54.72L114.91 54.72Q116.93 54.72 117.83 53.46Q118.73 52.20 119.45 50.33L119.45 50.33L124.20 38.81Q124.78 37.37 125.06 35.68Q125.35 33.98 125.35 32.11L125.35 32.11L125.35 16.56L126.07 16.56L126.07 32.11Q126.07 34.13 125.82 35.82Q125.57 37.51 124.92 39.10L124.92 39.10L120.17 50.62Q119.30 52.70 118.22 54.07Q117.14 55.44 114.91 55.44L114.91 55.44L108.58 55.44Q106.34 55.44 105.26 54.07Q104.18 52.70 103.32 50.62L103.32 50.62L98.57 39.10Q97.92 37.51 97.67 35.82Q97.42 34.13 97.42 32.11L97.42 32.11ZM165.31 70.49L165.31 70.49L153.65 70.49Q151.92 70.49 151.13 69.70Q150.34 68.90 150.34 67.18L150.34 67.18L150.34 32.54L140.47 32.54Q138.74 32.54 137.95 31.75Q137.16 30.96 137.16 29.23L137.16 29.23L137.16 20.52Q137.16 19.58 137.41 18.94Q137.66 18.29 138.17 17.86L138.17 17.86L147.46 10.01Q147.82 9.72 148.43 9.54Q149.04 9.36 149.76 9.36L149.76 9.36L187.78 9.36Q189.50 9.36 190.30 10.15Q191.09 10.94 191.09 12.67L191.09 12.67L191.09 21.38Q191.09 22.32 190.84 22.97Q190.58 23.62 190.08 24.05L190.08 24.05L180.72 31.82Q180.43 32.11 179.82 32.33Q179.21 32.54 178.49 32.54L178.49 32.54L177.91 32.54L177.91 59.33Q177.91 60.26 177.66 60.91Q177.41 61.56 176.90 61.99L176.90 61.99L167.54 69.77Q167.26 70.06 166.64 70.27Q166.03 70.49 165.31 70.49ZM162.94 61.92L174.60 61.92Q175.97 61.92 176.58 61.31Q177.19 60.70 177.19 59.33L177.19 59.33L177.19 23.98L187.78 23.98Q189.14 23.98 189.76 23.36Q190.37 22.75 190.37 21.38L190.37 21.38L190.37 12.67Q190.37 11.30 189.76 10.69Q189.14 10.08 187.78 10.08L187.78 10.08L149.76 10.08Q148.39 10.08 147.78 10.69Q147.17 11.30 147.17 12.67L147.17 12.67L147.17 21.38Q147.17 22.75 147.78 23.36Q148.39 23.98 149.76 23.98L149.76 23.98L160.34 23.98L160.34 59.33Q160.34 60.70 160.96 61.31Q161.57 61.92 162.94 61.92L162.94 61.92ZM169.13 55.44L168.41 55.44L168.41 17.28L153.65 17.28L153.65 16.56L183.89 16.56L183.89 17.28L169.13 17.28L169.13 55.44ZM227.38 70.49L227.38 70.49L196.70 70.49Q194.98 70.49 194.18 69.70Q193.39 68.90 193.39 67.18L193.39 67.18L193.39 58.61Q193.39 57.67 193.64 57.02Q193.90 56.38 194.40 55.94L194.40 55.94L203.11 48.60L203.11 32.54L196.70 32.54Q194.98 32.54 194.18 31.75Q193.39 30.96 193.39 29.23L193.39 29.23L193.39 20.52Q193.39 19.58 193.64 18.94Q193.90 18.29 194.40 17.86L194.40 17.86L203.69 10.01Q204.05 9.72 204.66 9.54Q205.27 9.36 205.99 9.36L205.99 9.36L236.66 9.36Q238.39 9.36 239.18 10.15Q239.98 10.94 239.98 12.67L239.98 12.67L239.98 21.38Q239.98 22.32 239.72 22.97Q239.47 23.62 238.97 24.05L238.97 24.05L230.40 31.25L230.40 47.45L236.66 47.45Q238.39 47.45 239.18 48.24Q239.98 49.03 239.98 50.76L239.98 50.76L239.98 59.33Q239.98 60.26 239.72 60.91Q239.47 61.56 238.97 61.99L238.97 61.99L229.61 69.77Q229.32 70.06 228.71 70.27Q228.10 70.49 227.38 70.49ZM205.99 61.92L205.99 61.92L236.66 61.92Q238.03 61.92 238.64 61.31Q239.26 60.70 239.26 59.33L239.26 59.33L239.26 50.76Q239.26 49.39 238.64 48.78Q238.03 48.17 236.66 48.17L236.66 48.17L229.68 48.17L229.68 23.98L236.66 23.98Q238.03 23.98 238.64 23.36Q239.26 22.75 239.26 21.38L239.26 21.38L239.26 12.67Q239.26 11.30 238.64 10.69Q238.03 10.08 236.66 10.08L236.66 10.08L205.99 10.08Q204.62 10.08 204.01 10.69Q203.40 11.30 203.40 12.67L203.40 12.67L203.40 21.38Q203.40 22.75 204.01 23.36Q204.62 23.98 205.99 23.98L205.99 23.98L213.12 23.98L213.12 48.17L205.99 48.17Q204.62 48.17 204.01 48.78Q203.40 49.39 203.40 50.76L203.40 50.76L203.40 59.33Q203.40 60.70 204.01 61.31Q204.62 61.92 205.99 61.92ZM232.78 54.72L232.78 55.44L209.88 55.44L209.88 54.72L221.04 54.72L221.04 17.28L209.88 17.28L209.88 16.56L232.78 16.56L232.78 17.28L221.76 17.28L221.76 54.72L232.78 54.72ZM280.66 34.20L280.66 34.20Q281.95 34.20 282.53 33.62Q283.10 33.05 284.33 31.18L284.33 31.18L293.11 17.78Q293.54 17.06 294.08 16.81Q294.62 16.56 295.20 16.56L295.20 16.56L296.42 16.56Q297.43 16.56 297.90 17.10Q298.37 17.64 298.37 18.79L298.37 18.79L298.37 55.44L297.65 55.44L297.65 18.79Q297.65 18.22 297.40 17.75Q297.14 17.28 296.42 17.28L296.42 17.28L295.34 17.28Q294.84 17.28 294.48 17.42Q294.12 17.57 293.69 18.29L293.69 18.29L284.90 31.54Q283.61 33.48 282.92 34.20Q282.24 34.92 280.66 34.92L280.66 34.92Q279.07 34.92 278.39 34.20Q277.70 33.48 276.41 31.54L276.41 31.54L267.62 18.29Q267.19 17.57 266.80 17.42Q266.40 17.28 265.90 17.28L265.90 17.28L264.82 17.28Q264.10 17.28 263.88 17.75Q263.66 18.22 263.66 18.79L263.66 18.79L263.66 55.44L262.94 55.44L262.94 18.79Q262.94 17.64 263.41 17.10Q263.88 16.56 264.82 16.56L264.82 16.56L266.04 16.56Q266.62 16.56 267.19 16.81Q267.77 17.06 268.20 17.78L268.20 17.78L276.98 31.18Q278.21 33.05 278.78 33.62Q279.36 34.20 280.66 34.20ZM257.90 61.92L268.63 61.92Q270 61.92 270.61 61.31Q271.22 60.70 271.22 59.33L271.22 59.33L271.22 33.98L275.47 41.83Q276.12 43.06 277.02 43.60Q277.92 44.14 279.29 44.14L279.29 44.14L282.17 44.14Q283.54 44.14 284.44 43.60Q285.34 43.06 285.98 41.83L285.98 41.83L290.23 33.98L290.23 59.33Q290.23 60.70 290.84 61.31Q291.46 61.92 292.82 61.92L292.82 61.92L303.91 61.92Q305.28 61.92 305.89 61.31Q306.50 60.70 306.50 59.33L306.50 59.33L306.50 12.67Q306.50 11.30 305.89 10.69Q305.28 10.08 303.91 10.08L303.91 10.08L292.25 10.08Q291.10 10.08 290.34 10.58Q289.58 11.09 288.94 12.24L288.94 12.24L282.53 23.98Q282.17 24.62 281.92 24.91Q281.66 25.20 281.23 25.20L281.23 25.20L280.58 25.20Q280.15 25.20 279.90 24.91Q279.65 24.62 279.29 23.98L279.29 23.98L272.81 12.24Q272.16 11.09 271.40 10.58Q270.65 10.08 269.50 10.08L269.50 10.08L257.90 10.08Q256.54 10.08 255.92 10.69Q255.31 11.30 255.31 12.67L255.31 12.67L255.31 59.33Q255.31 60.70 255.92 61.31Q256.54 61.92 257.90 61.92L257.90 61.92ZM270.94 61.99L270.94 61.99L261.58 69.77Q261.29 70.06 260.68 70.27Q260.06 70.49 259.34 70.49L259.34 70.49L248.62 70.49Q246.89 70.49 246.10 69.70Q245.30 68.90 245.30 67.18L245.30 67.18L245.30 20.52Q245.30 19.58 245.56 18.94Q245.81 18.29 246.31 17.86L246.31 17.86L255.60 10.01Q255.96 9.72 256.57 9.54Q257.18 9.36 257.90 9.36L257.90 9.36L269.50 9.36Q270.86 9.36 271.76 9.94Q272.66 10.51 273.46 11.88L273.46 11.88L278.35 20.88L279 19.73Q279.29 19.22 279.61 18.76Q279.94 18.29 280.30 18.00L280.30 18.00L289.58 10.22Q290.16 9.79 290.77 9.58Q291.38 9.36 292.25 9.36L292.25 9.36L303.91 9.36Q305.64 9.36 306.43 10.15Q307.22 10.94 307.22 12.67L307.22 12.67L307.22 59.33Q307.22 60.26 306.97 60.91Q306.72 61.56 306.22 61.99L306.22 61.99L296.86 69.77Q296.57 70.06 295.96 70.27Q295.34 70.49 294.62 70.49L294.62 70.49L283.54 70.49Q281.74 70.49 280.98 69.70Q280.22 68.90 280.22 67.18L280.22 67.18L280.22 48.17L275.98 51.70Q275.40 52.20 274.64 52.45Q273.89 52.70 272.88 52.70L272.88 52.70L271.94 52.70L271.94 59.33Q271.94 60.26 271.69 60.91Q271.44 61.56 270.94 61.99ZM350.35 70.49L350.35 70.49L316.94 70.49Q315.22 70.49 314.42 69.70Q313.63 68.90 313.63 67.18L313.63 67.18L313.63 20.52Q313.63 19.58 313.88 18.94Q314.14 18.29 314.64 17.86L314.64 17.86L323.93 10.01Q324.29 9.72 324.90 9.54Q325.51 9.36 326.23 9.36L326.23 9.36L359.64 9.36Q361.37 9.36 362.16 10.15Q362.95 10.94 362.95 12.67L362.95 12.67L362.95 21.10Q362.95 22.03 362.70 22.68Q362.45 23.33 361.94 23.76L361.94 23.76L355.75 28.87Q356.47 29.23 356.80 29.95Q357.12 30.67 357.12 31.82L357.12 31.82L357.12 39.53Q357.12 40.46 356.87 41.11Q356.62 41.76 356.11 42.19L356.11 42.19L349.70 47.59L359.64 47.59Q361.37 47.59 362.16 48.38Q362.95 49.18 362.95 50.90L362.95 50.90L362.95 59.33Q362.95 60.26 362.70 60.91Q362.45 61.56 361.94 61.99L361.94 61.99L352.58 69.77Q352.30 70.06 351.68 70.27Q351.07 70.49 350.35 70.49ZM326.23 61.92L359.64 61.92Q361.01 61.92 361.62 61.31Q362.23 60.70 362.23 59.33L362.23 59.33L362.23 50.90Q362.23 49.54 361.62 48.92Q361.01 48.31 359.64 48.31L359.64 48.31L339.77 48.31L339.77 42.12L353.81 42.12Q355.18 42.12 355.79 41.51Q356.40 40.90 356.40 39.53L356.40 39.53L356.40 31.82Q356.40 30.46 355.79 29.84Q355.18 29.23 353.81 29.23L353.81 29.23L339.77 29.23L339.77 23.69L359.64 23.69Q361.01 23.69 361.62 23.08Q362.23 22.46 362.23 21.10L362.23 21.10L362.23 12.67Q362.23 11.30 361.62 10.69Q361.01 10.08 359.64 10.08L359.64 10.08L326.23 10.08Q324.86 10.08 324.25 10.69Q323.64 11.30 323.64 12.67L323.64 12.67L323.64 59.33Q323.64 60.70 324.25 61.31Q324.86 61.92 326.23 61.92L326.23 61.92ZM332.21 54.72L355.75 54.72L355.75 55.44L331.49 55.44L331.49 16.56L355.75 16.56L355.75 17.28L332.21 17.28L332.21 35.35L349.92 35.35L349.92 36.07L332.21 36.07L332.21 54.72Z" class=" bl-fill-0" data-color-origin="#ffffff" data-color-type="fill"/>
</svg>